<mxfile host="app.diagrams.net" agent="Mozilla/5.0 (Windows NT 10.0; Win64; x64) AppleWebKit/537.36 (KHTML, like Gecko) Chrome/128.0.0.0 Safari/537.36" version="24.7.7">
  <diagram name="Сторінка-1" id="KFxCRmc-G-R0bV4r5HWE">
    <mxGraphModel dx="1142" dy="441" grid="1" gridSize="10" guides="1" tooltips="1" connect="1" arrows="1" fold="1" page="1" pageScale="1" pageWidth="827" pageHeight="1169" math="0" shadow="0">
      <root>
        <mxCell id="0" />
        <mxCell id="1" parent="0" />
        <mxCell id="8U0QzxVByZjtbmirI9Aw-1" value="Field" style="rounded=0;whiteSpace=wrap;html=1;" vertex="1" parent="1">
          <mxGeometry x="-810" width="70" height="30" as="geometry" />
        </mxCell>
        <mxCell id="8U0QzxVByZjtbmirI9Aw-2" value="+&lt;font color=&quot;#ff8000&quot;&gt;__init__&lt;/font&gt;()" style="rounded=0;whiteSpace=wrap;html=1;" vertex="1" parent="1">
          <mxGeometry x="-810" y="30" width="70" height="30" as="geometry" />
        </mxCell>
        <mxCell id="8U0QzxVByZjtbmirI9Aw-4" value="Name" style="rounded=0;whiteSpace=wrap;html=1;" vertex="1" parent="1">
          <mxGeometry x="-810" y="130" width="70" height="30" as="geometry" />
        </mxCell>
        <mxCell id="8U0QzxVByZjtbmirI9Aw-5" value="+&lt;font color=&quot;#ff8000&quot;&gt;__init__&lt;/font&gt;()&lt;div&gt;+&lt;font color=&quot;#ff8000&quot;&gt;__str__&lt;/font&gt;()&lt;/div&gt;" style="rounded=0;whiteSpace=wrap;html=1;align=left;" vertex="1" parent="1">
          <mxGeometry x="-810" y="160" width="70" height="60" as="geometry" />
        </mxCell>
        <mxCell id="8U0QzxVByZjtbmirI9Aw-8" value="" style="endArrow=classic;html=1;rounded=0;" edge="1" parent="1">
          <mxGeometry width="50" height="50" relative="1" as="geometry">
            <mxPoint x="-780" y="120" as="sourcePoint" />
            <mxPoint x="-780" y="80" as="targetPoint" />
          </mxGeometry>
        </mxCell>
        <mxCell id="8U0QzxVByZjtbmirI9Aw-10" value="" style="endArrow=classic;html=1;rounded=0;" edge="1" parent="1">
          <mxGeometry width="50" height="50" relative="1" as="geometry">
            <mxPoint x="-780" y="270" as="sourcePoint" />
            <mxPoint x="-780" y="240" as="targetPoint" />
          </mxGeometry>
        </mxCell>
        <mxCell id="8U0QzxVByZjtbmirI9Aw-11" value="Birthday" style="rounded=0;whiteSpace=wrap;html=1;" vertex="1" parent="1">
          <mxGeometry x="-810" y="290" width="70" height="30" as="geometry" />
        </mxCell>
        <mxCell id="8U0QzxVByZjtbmirI9Aw-12" value="+&lt;font color=&quot;#ff8000&quot;&gt;__init__&lt;/font&gt;()&lt;div&gt;+&lt;font color=&quot;#ff8000&quot;&gt;__str__&lt;/font&gt;()&lt;/div&gt;" style="rounded=0;whiteSpace=wrap;html=1;align=left;" vertex="1" parent="1">
          <mxGeometry x="-810" y="320" width="70" height="50" as="geometry" />
        </mxCell>
        <mxCell id="8U0QzxVByZjtbmirI9Aw-13" value="Record" style="rounded=0;whiteSpace=wrap;html=1;align=center;" vertex="1" parent="1">
          <mxGeometry x="-810" y="440" width="190" height="30" as="geometry" />
        </mxCell>
        <mxCell id="8U0QzxVByZjtbmirI9Aw-14" value="" style="endArrow=classic;html=1;rounded=0;" edge="1" parent="1">
          <mxGeometry width="50" height="50" relative="1" as="geometry">
            <mxPoint x="-780" y="420" as="sourcePoint" />
            <mxPoint x="-780" y="390" as="targetPoint" />
          </mxGeometry>
        </mxCell>
        <mxCell id="8U0QzxVByZjtbmirI9Aw-16" value="&lt;div style=&quot;text-align: left;&quot;&gt;&lt;span style=&quot;background-color: initial;&quot;&gt;+&lt;font color=&quot;#ff8000&quot;&gt;__init__&lt;/font&gt;(name, phones, birthday)&lt;/span&gt;&lt;/div&gt;&lt;div&gt;&lt;div style=&quot;text-align: left;&quot;&gt;+&lt;font color=&quot;#ff8000&quot;&gt;add_phone&lt;/font&gt;()&lt;/div&gt;&lt;/div&gt;&lt;div style=&quot;text-align: left;&quot;&gt;+&lt;font color=&quot;#ff8000&quot;&gt;remove_phone&lt;/font&gt;()&lt;/div&gt;&lt;div style=&quot;text-align: left;&quot;&gt;+&lt;font color=&quot;#ff8000&quot;&gt;edit_phone&lt;/font&gt;()&lt;/div&gt;&lt;div style=&quot;text-align: left;&quot;&gt;+&lt;font color=&quot;#ff8000&quot;&gt;find_phone&lt;/font&gt;()&lt;/div&gt;&lt;div style=&quot;text-align: left;&quot;&gt;+&lt;font color=&quot;#ff8000&quot;&gt;add_birthday&lt;/font&gt;()&lt;/div&gt;&lt;div style=&quot;text-align: left;&quot;&gt;+&lt;font color=&quot;#ff8000&quot;&gt;show_birthday&lt;/font&gt;()&lt;/div&gt;" style="rounded=0;whiteSpace=wrap;html=1;" vertex="1" parent="1">
          <mxGeometry x="-810" y="470" width="190" height="120" as="geometry" />
        </mxCell>
        <mxCell id="8U0QzxVByZjtbmirI9Aw-19" value="" style="endArrow=classic;html=1;rounded=0;" edge="1" parent="1">
          <mxGeometry width="50" height="50" relative="1" as="geometry">
            <mxPoint x="-780" y="650" as="sourcePoint" />
            <mxPoint x="-780" y="610" as="targetPoint" />
            <Array as="points" />
          </mxGeometry>
        </mxCell>
        <mxCell id="8U0QzxVByZjtbmirI9Aw-20" value="AdressBook" style="rounded=0;whiteSpace=wrap;html=1;" vertex="1" parent="1">
          <mxGeometry x="-810" y="670" width="160" height="30" as="geometry" />
        </mxCell>
        <mxCell id="8U0QzxVByZjtbmirI9Aw-21" value="+&lt;font color=&quot;#ff8000&quot;&gt;add_record&lt;/font&gt;()&lt;div&gt;+&lt;font color=&quot;#ff8000&quot;&gt;find&lt;/font&gt;()&lt;/div&gt;&lt;div&gt;+&lt;font color=&quot;#ff8000&quot;&gt;delete&lt;/font&gt;()&lt;/div&gt;&lt;div&gt;+&lt;font color=&quot;#ff8000&quot;&gt;find_pertial&lt;/font&gt;()&lt;/div&gt;&lt;div&gt;+&lt;font color=&quot;#ff8000&quot;&gt;get_upcoming_birthdays&lt;/font&gt;()&lt;/div&gt;&lt;div&gt;+&lt;font color=&quot;#ff8000&quot;&gt;save_to_file&lt;/font&gt;()&lt;/div&gt;&lt;div&gt;+&lt;font color=&quot;#ff8000&quot;&gt;load_from_file&lt;/font&gt;()&lt;/div&gt;" style="rounded=0;whiteSpace=wrap;html=1;align=left;" vertex="1" parent="1">
          <mxGeometry x="-810" y="700" width="160" height="120" as="geometry" />
        </mxCell>
      </root>
    </mxGraphModel>
  </diagram>
</mxfile>
